<svg xmlns="http://www.w3.org/2000/svg" xmlns:xlink="http://www.w3.org/1999/xlink" width="128" zoomAndPan="magnify" viewBox="0 0 96 95.999999" height="128" preserveAspectRatio="xMidYMid meet" version="1.0"><path fill="#99425b" d="M 78.214844 48.929688 C 78.214844 45.011719 75.039062 41.835938 71.117188 41.835938 C 70.863281 41.835938 70.617188 41.851562 70.371094 41.875 L 80.121094 13.148438 L 38.6875 13.148438 L 48.421875 41.851562 C 48.28125 41.839844 48.136719 41.835938 47.992188 41.835938 C 44.070312 41.835938 40.894531 45.011719 40.894531 48.929688 C 40.894531 52.09375 42.96875 54.773438 45.835938 55.6875 C 44.324219 58.304688 42.417969 60.664062 40.253906 62.703125 C 37.3125 65.476562 33.949219 67.578125 30.308594 68.871094 C 25.972656 66.648438 23.925781 61.699219 25.773438 57.363281 C 25.984375 56.875 26.195312 56.378906 26.398438 55.882812 C 29.539062 55.152344 31.878906 52.339844 31.878906 48.980469 C 31.878906 45.0625 28.699219 41.886719 24.78125 41.886719 C 20.859375 41.886719 17.679688 45.0625 17.679688 48.980469 C 17.679688 51.378906 18.878906 53.5 20.707031 54.785156 C 18.949219 58.78125 16.367188 62.964844 15.5625 67.8125 C 14.597656 73.621094 15.558594 79.785156 20.589844 83.269531 C 32.300781 91.378906 45.015625 78.242188 58.421875 74.9375 C 63.28125 73.742188 68.613281 73.933594 72.894531 71.457031 C 76.109375 69.597656 78.226562 66.515625 78.828125 63.054688 C 79.421875 59.636719 78.558594 56.234375 76.566406 53.472656 C 77.667969 52.160156 78.21875 50.644531 78.214844 48.929688 " fill-opacity="1" fill-rule="nonzero"/><path fill="#ffffff" d="M 77.121094 62.757812 C 76.597656 65.761719 74.742188 68.386719 72.023438 69.960938 C 69.492188 71.425781 66.457031 71.863281 63.246094 72.324219 C 61.523438 72.570312 59.746094 72.828125 58.007812 73.257812 C 53.410156 74.390625 48.957031 76.597656 44.652344 78.734375 C 36.035156 83.011719 28.59375 86.703125 21.574219 81.84375 C 16.4375 78.285156 16.671875 71.703125 17.273438 68.09375 C 17.828125 64.75 19.328125 61.671875 20.777344 58.695312 C 21.023438 58.1875 21.269531 57.683594 21.515625 57.175781 C 22.25 57.46875 23.007812 57.660156 23.796875 57.746094 C 22.316406 62.617188 24.640625 67.910156 29.515625 70.410156 L 30.183594 70.753906 L 30.890625 70.503906 C 34.742188 69.132812 38.296875 66.933594 41.445312 63.964844 C 43.480469 62.042969 45.230469 59.921875 46.671875 57.652344 C 47.109375 57.71875 47.550781 57.75 47.992188 57.75 C 52.464844 57.75 56.171875 54.410156 56.746094 50.09375 C 58.578125 50.027344 60.523438 50.027344 62.363281 50.09375 C 62.9375 54.410156 66.644531 57.75 71.117188 57.75 C 72.988281 57.75 74.722656 57.164062 76.152344 56.171875 C 77.144531 58.199219 77.515625 60.484375 77.121094 62.757812 Z M 24.78125 43.621094 C 27.738281 43.621094 30.144531 46.023438 30.144531 48.980469 C 30.144531 50.039062 29.832031 51.03125 29.296875 51.863281 C 28.40625 53.253906 26.890625 54.207031 25.148438 54.324219 C 25.027344 54.332031 24.902344 54.339844 24.78125 54.339844 C 24.121094 54.339844 23.488281 54.21875 22.90625 54 C 21.691406 53.542969 20.765625 52.753906 20.121094 51.632812 C 19.648438 50.808594 19.414062 49.925781 19.414062 48.980469 C 19.414062 46.023438 21.820312 43.621094 24.78125 43.621094 Z M 42.628906 48.929688 C 42.628906 46.242188 44.613281 44.011719 47.195312 43.628906 C 47.457031 43.589844 47.722656 43.570312 47.992188 43.570312 C 49.710938 43.570312 51.242188 44.382812 52.226562 45.644531 C 52.472656 45.960938 52.679688 46.296875 52.851562 46.660156 C 53.191406 47.378906 53.359375 48.132812 53.355469 48.929688 C 53.355469 49.355469 53.304688 49.773438 53.210938 50.171875 C 52.6875 52.359375 50.820312 54.03125 48.535156 54.261719 C 48.355469 54.277344 48.175781 54.289062 47.992188 54.289062 C 46.9375 54.289062 45.96875 54.003906 45.085938 53.429688 C 43.609375 52.472656 42.628906 50.8125 42.628906 48.929688 Z M 65.019531 42.554688 C 63.828125 43.6875 63.019531 45.050781 62.589844 46.636719 C 60.566406 46.5625 58.542969 46.5625 56.519531 46.636719 C 56.066406 44.953125 55.125 43.46875 53.859375 42.339844 L 59.410156 31.128906 Z M 41.105469 14.882812 L 77.703125 14.882812 L 69.058594 40.347656 C 68.6875 40.4375 68.320312 40.550781 67.964844 40.6875 L 59.425781 23.285156 L 50.863281 40.582031 C 50.488281 40.457031 50.109375 40.351562 49.71875 40.277344 Z M 76.480469 48.929688 C 76.480469 49.464844 76.402344 49.984375 76.253906 50.472656 C 75.894531 51.660156 75.203125 52.609375 74.1875 53.320312 C 73.265625 53.964844 72.242188 54.289062 71.117188 54.289062 C 68.640625 54.289062 66.550781 52.601562 65.9375 50.316406 C 65.8125 49.863281 65.753906 49.398438 65.753906 48.929688 C 65.753906 48.195312 65.898438 47.496094 66.167969 46.859375 C 66.304688 46.535156 66.476562 46.222656 66.675781 45.929688 C 67.640625 44.507812 69.269531 43.570312 71.117188 43.570312 C 71.285156 43.570312 71.453125 43.578125 71.617188 43.59375 C 74.34375 43.847656 76.480469 46.140625 76.480469 48.929688 Z M 79.949219 48.929688 C 79.949219 44.621094 76.84375 41.027344 72.75 40.257812 L 82.539062 11.417969 L 36.269531 11.417969 L 46.074219 40.316406 C 42.125 41.195312 39.160156 44.722656 39.160156 48.929688 C 39.160156 52.085938 40.832031 54.863281 43.335938 56.421875 C 42.132812 58.214844 40.703125 59.902344 39.066406 61.445312 C 36.46875 63.890625 33.578125 65.746094 30.460938 66.964844 C 27.320312 64.996094 25.992188 61.277344 27.371094 58.042969 L 27.476562 57.789062 L 27.679688 57.3125 C 31.128906 56.109375 33.613281 52.828125 33.613281 48.980469 C 33.613281 44.113281 29.648438 40.15625 24.78125 40.15625 C 19.910156 40.15625 15.949219 44.113281 15.949219 48.980469 C 15.949219 51.433594 16.957031 53.660156 18.585938 55.257812 C 18.28125 55.902344 17.972656 56.542969 17.660156 57.179688 C 16.171875 60.230469 14.488281 63.6875 13.851562 67.527344 C 12.585938 75.152344 14.628906 81.25 19.601562 84.691406 C 22.617188 86.78125 25.683594 87.601562 28.765625 87.601562 C 34.574219 87.601562 40.449219 84.6875 46.195312 81.835938 C 50.332031 79.785156 54.609375 77.660156 58.835938 76.621094 C 60.410156 76.234375 62.027344 76 63.742188 75.753906 C 67.136719 75.261719 70.652344 74.757812 73.761719 72.957031 C 77.371094 70.871094 79.839844 67.367188 80.535156 63.351562 C 81.136719 59.902344 80.414062 56.449219 78.65625 53.519531 C 79.519531 52.109375 79.953125 50.582031 79.949219 48.929688 Z M 79.949219 48.929688 " fill-opacity="1" fill-rule="nonzero"/></svg>