<svg width="110" height="62" viewBox="0 0 110 62" fill="none" xmlns="http://www.w3.org/2000/svg">
<path fill-rule="evenodd" clip-rule="evenodd" d="M63.539 19.6074H73.3217V29.6079H78.2678C80.5524 29.6079 82.9016 29.201 85.0647 28.4682C86.1279 28.1075 87.3207 27.6061 88.3693 26.9751C86.9882 25.1722 86.2832 22.8957 86.0761 20.6518C85.7938 17.5992 86.4098 13.6264 88.4754 11.2374L89.5039 10.0481L90.7292 11.0334C93.8142 13.5118 96.409 16.9754 96.8663 20.9239C100.581 19.8312 104.943 20.0896 108.217 21.9793L109.56 22.7545L108.854 24.1347C106.084 29.539 100.295 31.2135 94.6344 30.9171C86.1647 52.0128 67.7249 62 45.3671 62C33.8157 62 23.2184 57.6819 17.1835 47.4338L17.0847 47.2669L16.2055 45.4777C14.1656 40.9667 13.4879 36.0249 13.9474 31.0869L14.0856 29.6079H22.4513V19.6074H32.2336V9.82474H51.7994V0.042038H63.539V19.6074Z" fill="#364548"/>
<path fill-rule="evenodd" clip-rule="evenodd" d="M95.2333 23.3073C95.8892 18.2093 92.0742 14.2053 89.7084 12.304C86.9818 15.4562 86.5583 23.7176 90.8357 27.1958C88.4484 29.3161 83.4184 31.2379 78.2678 31.2379H15.5719C15.0713 36.6144 16.0151 41.5657 18.1709 45.8033L18.8841 47.1082C19.3357 47.8741 19.8291 48.6145 20.3622 49.326C22.9399 49.4916 25.3165 49.5485 27.4907 49.5006H27.4916C31.7643 49.4065 35.2506 48.9016 37.8929 47.9861C38.0797 47.928 38.2818 47.9448 38.4564 48.033C38.631 48.1212 38.7644 48.2739 38.8285 48.4587C38.8926 48.6436 38.8823 48.8461 38.7997 49.0234C38.7172 49.2008 38.5689 49.3391 38.3862 49.409C38.0345 49.5314 37.6683 49.6452 37.2901 49.7534H37.2888C35.2083 50.3477 32.9772 50.7473 30.0987 50.9248C30.2699 50.9278 29.9208 50.9505 29.9199 50.9505C29.8219 50.9569 29.6987 50.971 29.6003 50.9762C28.4674 51.0399 27.2447 51.0532 25.9946 51.0532C24.6273 51.0532 23.2809 51.0275 21.7754 50.9505L21.7369 50.9762C26.9606 56.8477 35.1287 60.3691 45.3675 60.3691C67.0361 60.3691 85.4155 50.7635 93.5545 29.1989C99.3285 29.7914 104.878 28.3189 107.402 23.3911C103.381 21.071 98.2106 21.8108 95.2333 23.3073Z" fill="#22A0C8"/>
<path fill-rule="evenodd" clip-rule="evenodd" d="M95.2333 23.3073C95.8892 18.2093 92.0742 14.2053 89.7084 12.304C86.9818 15.4562 86.5583 23.7176 90.8357 27.1958C88.4484 29.3161 83.4184 31.2379 78.2678 31.2379H19.2845C19.0287 39.4719 22.0842 45.722 27.4903 49.5006H27.4915C31.7643 49.4065 35.2506 48.9016 37.8929 47.9861C38.0797 47.928 38.2818 47.9448 38.4564 48.033C38.631 48.1212 38.7644 48.2739 38.8285 48.4587C38.8926 48.6436 38.8823 48.8461 38.7997 49.0234C38.7171 49.2008 38.5689 49.3391 38.3862 49.409C38.0345 49.5314 37.6683 49.6452 37.2901 49.7534H37.2888C35.2083 50.3477 32.7855 50.7986 29.9071 50.9762C29.9062 50.9762 29.8373 50.9099 29.8365 50.9099C37.2109 54.6927 47.9036 54.679 60.163 49.9699C73.9091 44.6888 86.7007 34.628 95.6256 23.1208C95.4913 23.1815 95.3604 23.2435 95.2333 23.3073Z" fill="#37B1D9"/>
<path fill-rule="evenodd" clip-rule="evenodd" d="M15.6895 37.7704C16.0788 40.6506 16.9217 43.3471 18.1709 45.8033L18.8841 47.1082C19.3356 47.8741 19.8291 48.6145 20.3622 49.326C22.9403 49.4916 25.3169 49.5485 27.4916 49.5006C31.7643 49.4065 35.2506 48.9016 37.8929 47.9861C38.0797 47.928 38.2818 47.9448 38.4564 48.033C38.631 48.1212 38.7644 48.2739 38.8285 48.4587C38.8926 48.6435 38.8823 48.8461 38.7997 49.0234C38.7172 49.2008 38.5689 49.3391 38.3862 49.409C38.0345 49.5314 37.6683 49.6452 37.2901 49.7534H37.2888C35.2083 50.3477 32.7983 50.7729 29.9199 50.9509C29.8211 50.9569 29.6487 50.9582 29.549 50.9638C28.417 51.0271 27.2066 51.066 25.9561 51.066C24.5892 51.066 23.191 51.0399 21.6864 50.9633C26.9101 56.8348 35.1287 60.3691 45.3675 60.3691C63.9181 60.3691 80.0574 53.3279 89.4247 37.7704H15.6895Z" fill="#1B81A5"/>
<path fill-rule="evenodd" clip-rule="evenodd" d="M19.8488 37.7704C20.9578 42.8273 23.6227 46.7971 27.4916 49.5006C31.7643 49.4065 35.2506 48.9016 37.8929 47.9861C38.0797 47.928 38.2818 47.9448 38.4564 48.033C38.631 48.1212 38.7644 48.2739 38.8285 48.4587C38.8926 48.6435 38.8823 48.8461 38.7997 49.0234C38.7172 49.2008 38.5689 49.3391 38.3862 49.409C38.0345 49.5314 37.6683 49.6452 37.2901 49.7534H37.2888C35.2083 50.3477 32.7474 50.7729 29.8686 50.9509C37.2426 54.7329 47.9045 54.6786 60.163 49.9699C67.579 47.1206 74.7164 42.8791 81.1197 37.7704H19.8488Z" fill="#1D91B4"/>
<path fill-rule="evenodd" clip-rule="evenodd" d="M24.0814 21.2379H32.56V29.7166H24.0814V21.2379ZM24.7877 21.9447H25.4568V29.0102H24.7877V21.9447ZM26.0455 21.9447H26.7416V29.0102H26.0459V21.9447H26.0455ZM27.3299 21.9447H28.0259V29.0102H27.3299V21.9447ZM28.615 21.9447H29.3107V29.0102H28.615V21.9447ZM29.8998 21.9447H30.5955V29.0102H29.8998V21.9447ZM31.1842 21.9447H31.8537V29.0102H31.1842V21.9447ZM33.8641 11.4552H42.3432V19.9334H33.8636V11.4552H33.8641ZM34.5708 12.162H35.2395V19.2271H34.5708V12.162ZM35.8286 12.162H36.5243V19.2271H35.8291V12.162H35.8286ZM37.113 12.162H37.8086V19.2271H37.113V12.162ZM38.3977 12.162H39.0934V19.2271H38.3977V12.162ZM39.6825 12.162H40.3786V19.2271H39.6825V12.162ZM40.9669 12.162H41.6368V19.2271H40.9669V12.162Z" fill="#23A3C2"/>
<path fill-rule="evenodd" clip-rule="evenodd" d="M33.8641 21.2379H42.3432V29.7166H33.8636V21.2379H33.8641ZM34.5708 21.9447H35.2395V29.0102H34.5708V21.9447ZM35.8287 21.9447H36.5243V29.0102H35.8291V21.9447H35.8287ZM37.113 21.9447H37.8086V29.0102H37.113V21.9447ZM38.3978 21.9447H39.0934V29.0102H38.3978V21.9447ZM39.6825 21.9447H40.3786V29.0102H39.6825V21.9447ZM40.9669 21.9447H41.6368V29.0102H40.9669V21.9447Z" fill="#34BBDE"/>
<path fill-rule="evenodd" clip-rule="evenodd" d="M43.6472 21.2379H52.1258V29.7166H43.6472V21.2379ZM44.3535 21.9447H45.0222V29.0102H44.3535V21.9447ZM45.6113 21.9447H46.307V29.0102H45.6113V21.9447ZM46.8961 21.9447H47.5917V29.0102H46.8961V21.9447ZM48.1808 21.9447H48.8765V29.0102H48.1808V21.9447ZM49.4652 21.9447H50.1617V29.0102H49.4652V21.9447ZM50.7499 21.9447H51.4191V29.0102H50.7499V21.9447Z" fill="#23A3C2"/>
<path fill-rule="evenodd" clip-rule="evenodd" d="M43.6472 11.4552H52.1258V19.9334H43.6472V11.4552ZM44.3535 12.162H45.0222V19.2271H44.3535V12.162ZM45.6113 12.162H46.307V19.2271H45.6113V12.162ZM46.8961 12.162H47.5917V19.2271H46.8961V12.162ZM48.1808 12.162H48.8765V19.2271H48.1808V12.162ZM49.4652 12.162H50.1617V19.2271H49.4652V12.162ZM50.7499 12.162H51.4191V19.2271H50.7499V12.162ZM53.4299 21.2379H61.9085V29.7166H53.4299V21.2379ZM54.1366 21.9447H54.8053V29.0102H54.1366V21.9447ZM55.3944 21.9447H56.0901V29.0102H55.3944V21.9447ZM56.6788 21.9447H57.3744V29.0102H56.6788V21.9447ZM57.9635 21.9447H58.6596V29.0102H57.9635V21.9447ZM59.2483 21.9447H59.9444V29.0102H59.2483V21.9447ZM60.5331 21.9447H61.2022V29.0102H60.5331V21.9447Z" fill="#34BBDE"/>
<path fill-rule="evenodd" clip-rule="evenodd" d="M53.4299 11.4552H61.9086V19.9334H53.4299V11.4552ZM54.1366 12.162H54.8053V19.2271H54.1366V12.162ZM55.3945 12.162H56.0901V19.2271H55.3945V12.162ZM56.6788 12.162H57.3744V19.2271H56.6788V12.162ZM57.9636 12.162H58.6596V19.2271H57.9636V12.162ZM59.2483 12.162H59.9444V19.2271H59.2483V12.162ZM60.5331 12.162H61.2022V19.2271H60.5331V12.162Z" fill="#23A3C2"/>
<path fill-rule="evenodd" clip-rule="evenodd" d="M53.4299 1.67206H61.9086V10.1516H53.4299V1.67206ZM54.1366 2.3784H54.8053V9.4444H54.1366V2.37797V2.3784ZM55.3945 2.3784H56.0901V9.4444H55.3945V2.37797V2.3784ZM56.6788 2.3784H57.3744V9.4444H56.6788V2.37797V2.3784ZM57.9636 2.3784H58.6596V9.4444H57.9636V2.37797V2.3784ZM59.2483 2.3784H59.9444V9.4444H59.2483V2.37797V2.3784ZM60.5331 2.3784H61.2022V9.4444H60.5331V2.37797V2.3784Z" fill="#34BBDE"/>
<path fill-rule="evenodd" clip-rule="evenodd" d="M63.2126 21.2379H71.6913V29.7166H63.2126V21.2379ZM63.9185 21.9447H64.588V29.0102H63.9189V21.9447H63.9185ZM65.1763 21.9447H65.8724V29.0102H65.1767V21.9447H65.1763ZM66.4615 21.9447H67.1576V29.0102H66.4615V21.9447ZM67.7458 21.9447H68.4419V29.0102H67.7458V21.9447ZM69.031 21.9447H69.7267V29.0102H69.031V21.9447ZM70.3154 21.9447H70.9845V29.0102H70.3154V21.9447Z" fill="#23A3C2"/>
<path fill-rule="evenodd" clip-rule="evenodd" d="M41.8122 43.4631C42.1221 43.459 42.4297 43.5164 42.7171 43.6322C43.0046 43.7479 43.2662 43.9196 43.4867 44.1372C43.7073 44.3549 43.8824 44.6142 44.0019 44.9001C44.1214 45.186 44.1829 45.4928 44.1828 45.8027C44.1828 46.1125 44.1211 46.4193 44.0015 46.7052C43.8819 46.991 43.7067 47.2503 43.4861 47.4679C43.2655 47.6855 43.0038 47.857 42.7163 47.9727C42.4288 48.0883 42.1212 48.1456 41.8114 48.1414C41.1965 48.133 40.6096 47.8828 40.1778 47.4449C39.746 47.0071 39.504 46.4168 39.5041 45.8018C39.5042 45.1869 39.7465 44.5967 40.1784 44.159C40.6104 43.7213 41.1973 43.4713 41.8122 43.4631Z" fill="#D3ECEC"/>
<path fill-rule="evenodd" clip-rule="evenodd" d="M41.8122 44.1267C42.0261 44.1267 42.2302 44.1669 42.4185 44.24C42.2886 44.3154 42.1871 44.4315 42.1298 44.5704C42.0725 44.7092 42.0624 44.8631 42.1013 45.0081C42.1402 45.1532 42.2257 45.2815 42.3447 45.3731C42.4638 45.4647 42.6097 45.5146 42.7599 45.515C43.0187 45.515 43.2433 45.3716 43.3597 45.1594C43.4975 45.4913 43.5248 45.8588 43.4378 46.2074C43.3507 46.5561 43.1538 46.8675 42.8761 47.0957C42.5985 47.3238 42.2548 47.4566 41.8959 47.4745C41.537 47.4923 41.1818 47.3943 40.8829 47.1948C40.584 46.9953 40.3572 46.7049 40.236 46.3666C40.1147 46.0283 40.1055 45.66 40.2097 45.3161C40.3139 44.9721 40.5259 44.6708 40.8145 44.4566C41.1031 44.2425 41.4529 44.1268 41.8122 44.1267ZM0.439606 38.6158H109.248C106.879 38.0152 101.752 37.2031 102.598 34.098C98.2893 39.083 87.9004 37.5955 85.2782 35.1376C82.3587 39.3722 65.3611 37.7623 64.1756 34.4633C60.5151 38.7591 49.173 38.7591 45.5125 34.4633C44.3261 37.7623 27.329 39.3722 24.4091 35.1372C21.7873 37.5955 11.3988 39.083 7.09061 34.0984C7.936 37.2031 2.80934 38.0152 0.439606 38.6162" fill="#364548"/>
<path fill-rule="evenodd" clip-rule="evenodd" d="M48.0298 60.3186C42.2371 57.5699 39.0579 53.8328 37.2888 49.7539C35.1368 50.3678 32.5506 50.7606 29.5451 50.9291C28.4131 50.9924 27.222 51.025 25.9728 51.025C24.5318 51.025 23.0135 50.9822 21.4194 50.8979C26.7317 56.2072 33.2668 60.2947 45.3675 60.3691C46.2608 60.3691 47.1472 60.352 48.0298 60.3186Z" fill="#BDD9D7"/>
<path fill-rule="evenodd" clip-rule="evenodd" d="M39.4403 53.5179C38.639 52.4299 37.8616 51.0626 37.2901 49.753C35.1381 50.3678 32.551 50.7606 29.5451 50.9295C31.6098 52.05 34.5622 53.0884 39.4408 53.5179" fill="#D3ECEC"/>
</svg>
