<svg xmlns="http://www.w3.org/2000/svg" xmlns:xlink="http://www.w3.org/1999/xlink" width="100" zoomAndPan="magnify" viewBox="0 0 75 74.999997" height="100" preserveAspectRatio="xMidYMid meet" version="1.0"><defs><clipPath id="f9c12ace67"><path d="M 3.1875 2.582031 L 72.1875 2.582031 L 72.1875 72.332031 L 3.1875 72.332031 Z M 3.1875 2.582031 " clip-rule="nonzero"/></clipPath></defs><g clip-path="url(#f9c12ace67)"><path fill="#5271ff" d="M 55.007812 53.773438 C 55.59375 51.507812 56.039062 49.1875 56.332031 46.808594 C 56.371094 46.5 56.40625 46.191406 56.441406 45.882812 L 60.367188 45.882812 C 61.757812 45.882812 62.898438 44.730469 62.898438 43.320312 L 62.898438 39.460938 L 67.894531 39.476562 C 67.554688 44.707031 65.910156 49.582031 63.289062 53.773438 Z M 50.566406 65.148438 C 51.792969 62.863281 52.839844 60.492188 53.703125 58.039062 L 60.074219 58.039062 C 57.410156 60.996094 54.183594 63.425781 50.566406 65.148438 Z M 44.703125 67.230469 C 43.078125 67.625 41.402344 67.882812 39.691406 67.996094 L 39.691406 58.039062 L 49.21875 58.039062 C 47.980469 61.195312 46.402344 64.214844 44.484375 67.082031 Z M 52.222656 45.882812 C 51.90625 48.59375 51.386719 51.226562 50.660156 53.773438 L 39.691406 53.773438 L 39.691406 45.882812 Z M 37.476562 36.308594 L 35.363281 43.125 L 34.042969 43.125 L 34.007812 43.242188 L 33.980469 43.125 L 32.78125 43.125 L 30.507812 34.957031 L 28.234375 43.125 L 27.035156 43.125 L 27.007812 43.242188 L 26.96875 43.125 L 25.652344 43.125 L 23.539062 36.308594 L 21.429688 43.125 L 20.109375 43.125 L 20.074219 43.242188 L 20.046875 43.125 L 18.847656 43.125 L 15.367188 30.628906 L 18.714844 30.628906 L 20.265625 36.949219 L 22.238281 30.628906 L 23.53125 30.628906 L 23.539062 30.601562 L 23.550781 30.628906 L 24.84375 30.628906 L 26.8125 36.949219 L 28.367188 30.628906 L 32.648438 30.628906 L 34.203125 36.949219 L 36.171875 30.628906 L 37.464844 30.628906 L 37.476562 30.601562 L 37.484375 30.628906 L 38.777344 30.628906 L 40.746094 36.949219 L 42.300781 30.628906 L 46.582031 30.628906 L 48.136719 36.949219 L 50.105469 30.628906 L 51.398438 30.628906 L 51.410156 30.601562 L 51.417969 30.628906 L 52.710938 30.628906 L 54.683594 36.949219 L 56.234375 30.628906 L 59.582031 30.628906 L 56.101562 43.125 L 54.902344 43.125 L 54.875 43.242188 L 54.839844 43.125 L 53.519531 43.125 L 51.410156 36.308594 L 49.296875 43.125 L 47.980469 43.125 L 47.941406 43.242188 L 47.914062 43.125 L 46.71875 43.125 L 44.441406 34.957031 L 42.167969 43.125 L 40.96875 43.125 L 40.941406 43.242188 L 40.90625 43.125 L 39.585938 43.125 Z M 35.46875 53.773438 L 23.921875 53.773438 C 23.207031 51.222656 22.703125 48.59375 22.414062 45.882812 L 35.46875 45.882812 Z M 35.46875 67.980469 C 33.628906 67.847656 31.832031 67.542969 30.09375 67.089844 C 28.164062 64.214844 26.578125 61.199219 25.347656 58.039062 L 35.46875 58.039062 Z M 15.296875 58.039062 L 20.707031 58.039062 C 21.488281 60.253906 22.417969 62.40625 23.5 64.488281 C 20.410156 62.824219 17.636719 60.636719 15.296875 58.039062 Z M 12.082031 53.773438 C 9.425781 49.53125 7.777344 44.582031 7.464844 39.277344 L 11.839844 39.292969 L 11.839844 43.320312 C 11.839844 44.730469 12.980469 45.882812 14.371094 45.882812 L 18.035156 45.882812 C 18.085938 46.40625 18.144531 46.929688 18.210938 47.449219 C 18.488281 49.605469 18.890625 51.710938 19.417969 53.773438 Z M 13.386719 19.21875 L 21.050781 19.21875 C 20.355469 21.484375 19.703125 23.964844 19.160156 26.617188 C 19.097656 26.921875 19.039062 27.230469 18.980469 27.539062 L 14.371094 27.539062 C 12.980469 27.539062 11.839844 28.691406 11.839844 30.097656 L 11.839844 35.027344 L 7.507812 35.011719 C 7.96875 29.125 10.085938 23.703125 13.386719 19.21875 Z M 24.558594 9.878906 C 23.925781 11.289062 23.210938 12.996094 22.492188 14.953125 L 17.1875 14.953125 C 19.371094 12.917969 21.851562 11.199219 24.558594 9.878906 Z M 35.46875 19.21875 L 35.46875 27.539062 L 23.441406 27.539062 C 24.054688 24.515625 24.832031 21.714844 25.644531 19.21875 Z M 30.472656 7.730469 C 32.089844 7.328125 33.761719 7.054688 35.46875 6.929688 L 35.46875 14.953125 L 27.175781 14.953125 C 28.675781 11.121094 30.035156 8.527344 30.472656 7.730469 Z M 39.691406 19.21875 L 49.375 19.21875 C 50.089844 21.558594 50.765625 24.152344 51.304688 26.933594 C 51.34375 27.136719 51.382812 27.335938 51.417969 27.539062 L 39.691406 27.539062 Z M 39.691406 6.917969 C 41.457031 7.035156 43.179688 7.304688 44.851562 7.71875 C 45.484375 8.976562 46.679688 11.511719 47.941406 14.953125 L 39.691406 14.953125 Z M 58.183594 14.953125 L 52.4375 14.953125 C 51.738281 12.9375 51.042969 11.167969 50.417969 9.691406 C 53.277344 11.035156 55.894531 12.816406 58.183594 14.953125 Z M 61.984375 19.21875 C 65.320312 23.753906 67.449219 29.246094 67.878906 35.210938 L 62.898438 35.195312 L 62.898438 30.097656 C 62.898438 28.691406 61.757812 27.539062 60.367188 27.539062 L 55.707031 27.539062 C 55.617188 27.019531 55.523438 26.5 55.417969 25.976562 C 54.945312 23.570312 54.382812 21.308594 53.785156 19.21875 Z M 37.6875 2.582031 C 18.664062 2.582031 3.191406 18.226562 3.191406 37.457031 C 3.191406 56.6875 18.664062 72.332031 37.6875 72.332031 C 56.707031 72.332031 72.179688 56.6875 72.179688 37.457031 C 72.179688 18.226562 56.707031 2.582031 37.6875 2.582031 " fill-opacity="1" fill-rule="nonzero"/></g></svg>