<svg xmlns="http://www.w3.org/2000/svg" xmlns:xlink="http://www.w3.org/1999/xlink" width="1584" zoomAndPan="magnify" viewBox="0 0 1188 149.999998" height="200" preserveAspectRatio="xMidYMid meet" version="1.0"><defs><clipPath id="e1eb5348de"><path d="M 101 52 L 157 52 L 157 102.65625 L 101 102.65625 Z M 101 52 " clip-rule="nonzero"/></clipPath><clipPath id="210c00fb05"><path d="M 169 52 L 226 52 L 226 102.65625 L 169 102.65625 Z M 169 52 " clip-rule="nonzero"/></clipPath><clipPath id="9f092709c5"><path d="M 238 52 L 295 52 L 295 102.65625 L 238 102.65625 Z M 238 52 " clip-rule="nonzero"/></clipPath><clipPath id="48629c1b73"><path d="M 306 52 L 363 52 L 363 102.65625 L 306 102.65625 Z M 306 52 " clip-rule="nonzero"/></clipPath><clipPath id="6fdccdd19c"><path d="M 375 52 L 431.636719 52 L 431.636719 102.65625 L 375 102.65625 Z M 375 52 " clip-rule="nonzero"/></clipPath><clipPath id="36e6c8a18f"><path d="M 441.636719 52 L 496 52 L 496 100.40625 L 441.636719 100.40625 Z M 441.636719 52 " clip-rule="nonzero"/></clipPath><clipPath id="1e87d7e6e8"><path d="M 507 52 L 562 52 L 562 100.40625 L 507 100.40625 Z M 507 52 " clip-rule="nonzero"/></clipPath><clipPath id="c1a067501d"><path d="M 573 52 L 628 52 L 628 100.40625 L 573 100.40625 Z M 573 52 " clip-rule="nonzero"/></clipPath><clipPath id="df21c11aa8"><path d="M 639 52 L 693 52 L 693 100.40625 L 639 100.40625 Z M 639 52 " clip-rule="nonzero"/></clipPath><clipPath id="9e84013bad"><path d="M 705 52 L 758.886719 52 L 758.886719 100.40625 L 705 100.40625 Z M 705 52 " clip-rule="nonzero"/></clipPath><clipPath id="abd54e55f2"><path d="M 769.625 52 L 824 52 L 824 100.40625 L 769.625 100.40625 Z M 769.625 52 " clip-rule="nonzero"/></clipPath><clipPath id="f237857d18"><path d="M 835 52 L 890 52 L 890 100.40625 L 835 100.40625 Z M 835 52 " clip-rule="nonzero"/></clipPath><clipPath id="cb16b6e385"><path d="M 901 52 L 956 52 L 956 100.40625 L 901 100.40625 Z M 901 52 " clip-rule="nonzero"/></clipPath><clipPath id="fdf1440282"><path d="M 967 52 L 1021 52 L 1021 100.40625 L 967 100.40625 Z M 967 52 " clip-rule="nonzero"/></clipPath><clipPath id="9990e1761f"><path d="M 1033 52 L 1086.875 52 L 1086.875 100.40625 L 1033 100.40625 Z M 1033 52 " clip-rule="nonzero"/></clipPath></defs><g clip-path="url(#e1eb5348de)"><path fill="#fd8bcc" d="M 103.273438 76.605469 C 102.996094 76.054688 102.738281 75.480469 102.503906 74.886719 C 101.238281 71.617188 100.894531 68.027344 101.335938 64.550781 C 101.644531 62.125 102.351562 59.703125 103.765625 57.703125 C 111.664062 46.5 127.554688 57.125 129.199219 67.636719 C 129.566406 63.34375 131.390625 58.027344 134.96875 55.320312 C 138.898438 52.347656 145.726562 51.605469 150.136719 53.855469 C 154.238281 55.945312 156.640625 60.539062 156.957031 65.101562 C 157.273438 69.667969 155.769531 74.191406 153.648438 78.257812 C 150.710938 83.890625 146.613281 88.832031 142.476562 93.664062 C 140.417969 96.070312 138.335938 98.464844 135.917969 100.511719 C 135.007812 101.277344 134.011719 102.015625 132.84375 102.269531 C 131.339844 102.589844 129.785156 102.058594 128.410156 101.378906 C 122.875 98.632812 118.210938 94.609375 113.894531 90.421875 C 109.722656 86.371094 105.953125 81.910156 103.273438 76.605469 " fill-opacity="1" fill-rule="nonzero"/></g><g clip-path="url(#210c00fb05)"><path fill="#fd69b9" d="M 171.863281 76.605469 C 171.585938 76.054688 171.332031 75.480469 171.097656 74.886719 C 169.832031 71.617188 169.484375 68.027344 169.925781 64.550781 C 170.238281 62.125 170.945312 59.703125 172.359375 57.703125 C 180.257812 46.5 196.152344 57.125 197.789062 67.636719 C 198.160156 63.34375 199.984375 58.027344 203.5625 55.320312 C 207.492188 52.347656 214.320312 51.605469 218.734375 53.855469 C 222.828125 55.945312 225.234375 60.539062 225.550781 65.101562 C 225.867188 69.667969 224.363281 74.191406 222.246094 78.257812 C 219.304688 83.890625 215.207031 88.832031 211.070312 93.664062 C 209.011719 96.070312 206.925781 98.464844 204.511719 100.511719 C 203.601562 101.277344 202.605469 102.015625 201.433594 102.269531 C 199.929688 102.589844 198.378906 102.058594 197.003906 101.378906 C 191.464844 98.632812 186.800781 94.609375 182.488281 90.421875 C 178.316406 86.371094 174.550781 81.910156 171.863281 76.605469 " fill-opacity="1" fill-rule="nonzero"/></g><g clip-path="url(#9f092709c5)"><path fill="#fb6bdd" d="M 240.460938 76.605469 C 240.183594 76.054688 239.925781 75.480469 239.691406 74.886719 C 238.425781 71.617188 238.078125 68.027344 238.519531 64.550781 C 238.832031 62.125 239.539062 59.703125 240.949219 57.703125 C 248.851562 46.5 264.742188 57.125 266.386719 67.636719 C 266.753906 63.34375 268.574219 58.027344 272.15625 55.320312 C 276.085938 52.347656 282.914062 51.605469 287.328125 53.855469 C 291.425781 55.945312 293.828125 60.539062 294.144531 65.101562 C 294.460938 69.667969 292.957031 74.191406 290.835938 78.257812 C 287.898438 83.890625 283.800781 88.832031 279.660156 93.664062 C 277.605469 96.070312 275.519531 98.464844 273.105469 100.511719 C 272.191406 101.277344 271.195312 102.015625 270.027344 102.269531 C 268.527344 102.589844 266.972656 102.058594 265.597656 101.378906 C 260.058594 98.632812 255.394531 94.609375 251.085938 90.421875 C 246.910156 86.371094 243.140625 81.910156 240.460938 76.605469 " fill-opacity="1" fill-rule="nonzero"/></g><g clip-path="url(#48629c1b73)"><path fill="#f76bd8" d="M 309.050781 76.605469 C 308.773438 76.054688 308.515625 75.480469 308.289062 74.886719 C 307.019531 71.617188 306.671875 68.027344 307.113281 64.550781 C 307.421875 62.125 308.132812 59.703125 309.542969 57.703125 C 317.445312 46.5 333.339844 57.125 334.980469 67.636719 C 335.347656 63.34375 337.167969 58.027344 340.75 55.320312 C 344.679688 52.347656 351.507812 51.605469 355.917969 53.855469 C 360.019531 55.945312 362.421875 60.539062 362.738281 65.101562 C 363.054688 69.667969 361.550781 74.191406 359.429688 78.257812 C 356.492188 83.890625 352.394531 88.832031 348.253906 93.664062 C 346.199219 96.070312 344.113281 98.464844 341.695312 100.511719 C 340.785156 101.277344 339.789062 102.015625 338.621094 102.269531 C 337.117188 102.589844 335.566406 102.058594 334.191406 101.378906 C 328.652344 98.632812 323.988281 94.609375 319.679688 90.421875 C 315.503906 86.371094 311.738281 81.910156 309.050781 76.605469 " fill-opacity="1" fill-rule="nonzero"/></g><g clip-path="url(#6fdccdd19c)"><path fill="#fa7beb" d="M 377.648438 76.605469 C 377.367188 76.054688 377.109375 75.480469 376.878906 74.886719 C 375.613281 71.617188 375.265625 68.027344 375.707031 64.550781 C 376.015625 62.125 376.726562 59.703125 378.136719 57.703125 C 386.035156 46.5 401.929688 57.125 403.570312 67.636719 C 403.941406 63.34375 405.761719 58.027344 409.34375 55.320312 C 413.273438 52.347656 420.101562 51.605469 424.511719 53.855469 C 428.613281 55.945312 431.015625 60.539062 431.332031 65.101562 C 431.644531 69.667969 430.140625 74.191406 428.023438 78.257812 C 425.085938 83.890625 420.984375 88.832031 416.851562 93.664062 C 414.792969 96.070312 412.707031 98.464844 410.289062 100.511719 C 409.378906 101.277344 408.382812 102.015625 407.214844 102.269531 C 405.710938 102.589844 404.15625 102.058594 402.78125 101.378906 C 397.246094 98.632812 392.582031 94.609375 388.269531 90.421875 C 384.097656 86.371094 380.332031 81.910156 377.648438 76.605469 " fill-opacity="1" fill-rule="nonzero"/></g><g clip-path="url(#36e6c8a18f)"><path fill="#ff66c4" d="M 443.925781 75.398438 C 443.660156 74.871094 443.410156 74.320312 443.1875 73.746094 C 441.972656 70.609375 441.644531 67.164062 442.066406 63.828125 C 442.363281 61.496094 443.042969 59.171875 444.398438 57.253906 C 451.972656 46.5 467.21875 56.695312 468.792969 66.789062 C 469.148438 62.667969 470.894531 57.5625 474.328125 54.964844 C 478.097656 52.109375 484.648438 51.398438 488.878906 53.558594 C 492.8125 55.566406 495.117188 59.976562 495.417969 64.355469 C 495.722656 68.738281 494.277344 73.082031 492.246094 76.984375 C 489.429688 82.390625 485.496094 87.132812 481.527344 91.773438 C 479.554688 94.082031 477.554688 96.382812 475.238281 98.34375 C 474.363281 99.082031 473.410156 99.789062 472.289062 100.03125 C 470.84375 100.339844 469.355469 99.832031 468.035156 99.179688 C 462.726562 96.539062 458.25 92.679688 454.113281 88.660156 C 450.113281 84.773438 446.496094 80.492188 443.925781 75.398438 " fill-opacity="1" fill-rule="nonzero"/></g><g clip-path="url(#1e87d7e6e8)"><path fill="#e96fe8" d="M 509.71875 75.398438 C 509.449219 74.871094 509.207031 74.320312 508.984375 73.746094 C 507.769531 70.609375 507.4375 67.164062 507.859375 63.828125 C 508.15625 61.496094 508.835938 59.171875 510.191406 57.253906 C 517.765625 46.5 533.011719 56.695312 534.585938 66.789062 C 534.941406 62.667969 536.6875 57.5625 540.121094 54.964844 C 543.890625 52.109375 550.441406 51.398438 554.671875 53.558594 C 558.601562 55.566406 560.910156 59.976562 561.210938 64.355469 C 561.519531 68.738281 560.074219 73.082031 558.039062 76.984375 C 555.222656 82.390625 551.289062 87.132812 547.324219 91.773438 C 545.347656 94.082031 543.347656 96.382812 541.03125 98.34375 C 540.15625 99.082031 539.203125 99.789062 538.082031 100.03125 C 536.636719 100.339844 535.148438 99.832031 533.828125 99.179688 C 528.519531 96.539062 524.046875 92.679688 519.90625 88.660156 C 515.90625 84.773438 512.292969 80.492188 509.71875 75.398438 " fill-opacity="1" fill-rule="nonzero"/></g><g clip-path="url(#c1a067501d)"><path fill="#d16beb" d="M 575.515625 75.398438 C 575.246094 74.871094 575 74.320312 574.777344 73.746094 C 573.5625 70.609375 573.226562 67.164062 573.652344 63.828125 C 573.949219 61.496094 574.628906 59.171875 575.984375 57.253906 C 583.5625 46.5 598.804688 56.695312 600.378906 66.789062 C 600.730469 62.667969 602.480469 57.5625 605.917969 54.964844 C 609.683594 52.109375 616.234375 51.398438 620.464844 53.558594 C 624.398438 55.566406 626.703125 59.976562 627.007812 64.355469 C 627.308594 68.738281 625.867188 73.082031 623.835938 76.984375 C 621.015625 82.390625 617.082031 87.132812 613.113281 91.773438 C 611.140625 94.082031 609.144531 96.382812 606.824219 98.34375 C 605.949219 99.082031 604.996094 99.789062 603.875 100.03125 C 602.433594 100.339844 600.941406 99.832031 599.625 99.179688 C 594.3125 96.539062 589.839844 92.679688 585.703125 88.660156 C 581.699219 84.773438 578.085938 80.492188 575.515625 75.398438 " fill-opacity="1" fill-rule="nonzero"/></g><g clip-path="url(#df21c11aa8)"><path fill="#ae72eb" d="M 641.304688 75.398438 C 641.039062 74.871094 640.792969 74.320312 640.570312 73.746094 C 639.355469 70.609375 639.023438 67.164062 639.445312 63.828125 C 639.742188 61.496094 640.421875 59.171875 641.777344 57.253906 C 649.355469 46.5 664.601562 56.695312 666.175781 66.789062 C 666.527344 62.667969 668.273438 57.5625 671.710938 54.964844 C 675.476562 52.109375 682.027344 51.398438 686.261719 53.558594 C 690.191406 55.566406 692.496094 59.976562 692.800781 64.355469 C 693.105469 68.738281 691.660156 73.082031 689.625 76.984375 C 686.808594 82.390625 682.878906 87.132812 678.90625 91.773438 C 676.9375 94.082031 674.9375 96.382812 672.617188 98.34375 C 671.746094 99.082031 670.789062 99.789062 669.667969 100.03125 C 668.226562 100.339844 666.734375 99.832031 665.417969 99.179688 C 660.105469 96.539062 655.632812 92.679688 651.496094 88.660156 C 647.492188 84.773438 643.878906 80.492188 641.304688 75.398438 " fill-opacity="1" fill-rule="nonzero"/></g><g clip-path="url(#9e84013bad)"><path fill="#ae72eb" d="M 707.101562 75.398438 C 706.832031 74.871094 706.585938 74.320312 706.363281 73.746094 C 705.148438 70.609375 704.816406 67.164062 705.238281 63.828125 C 705.535156 61.496094 706.21875 59.171875 707.570312 57.253906 C 715.148438 46.5 730.394531 56.695312 731.96875 66.789062 C 732.320312 62.667969 734.070312 57.5625 737.503906 54.964844 C 741.273438 52.109375 747.820312 51.398438 752.054688 53.558594 C 755.984375 55.566406 758.289062 59.976562 758.59375 64.355469 C 758.894531 68.738281 757.453125 73.082031 755.421875 76.984375 C 752.601562 82.390625 748.671875 87.132812 744.703125 91.773438 C 742.730469 94.082031 740.730469 96.382812 738.410156 98.34375 C 737.539062 99.082031 736.582031 99.789062 735.460938 100.03125 C 734.019531 100.339844 732.527344 99.832031 731.210938 99.179688 C 725.898438 96.539062 721.425781 92.679688 717.289062 88.660156 C 713.285156 84.773438 709.675781 80.492188 707.101562 75.398438 " fill-opacity="1" fill-rule="nonzero"/></g><g clip-path="url(#abd54e55f2)"><path fill="#7579f4" d="M 771.914062 75.398438 C 771.648438 74.871094 771.398438 74.320312 771.175781 73.746094 C 769.960938 70.609375 769.632812 67.164062 770.054688 63.828125 C 770.351562 61.496094 771.03125 59.171875 772.386719 57.253906 C 779.960938 46.5 795.207031 56.695312 796.78125 66.789062 C 797.136719 62.667969 798.882812 57.5625 802.316406 54.964844 C 806.085938 52.109375 812.636719 51.398438 816.867188 53.558594 C 820.800781 55.566406 823.105469 59.976562 823.40625 64.355469 C 823.710938 68.738281 822.265625 73.082031 820.234375 76.984375 C 817.417969 82.390625 813.484375 87.132812 809.515625 91.773438 C 807.542969 94.082031 805.542969 96.382812 803.226562 98.34375 C 802.351562 99.082031 801.398438 99.789062 800.277344 100.03125 C 798.832031 100.339844 797.34375 99.832031 796.023438 99.179688 C 790.714844 96.539062 786.238281 92.679688 782.101562 88.660156 C 778.101562 84.773438 774.484375 80.492188 771.914062 75.398438 " fill-opacity="1" fill-rule="nonzero"/></g><g clip-path="url(#f237857d18)"><path fill="#7579f4" d="M 837.707031 75.398438 C 837.4375 74.871094 837.195312 74.320312 836.972656 73.746094 C 835.757812 70.609375 835.425781 67.164062 835.847656 63.828125 C 836.144531 61.496094 836.824219 59.171875 838.179688 57.253906 C 845.753906 46.5 861 56.695312 862.574219 66.789062 C 862.929688 62.667969 864.675781 57.5625 868.109375 54.964844 C 871.878906 52.109375 878.429688 51.398438 882.660156 53.558594 C 886.589844 55.566406 888.898438 59.976562 889.199219 64.355469 C 889.503906 68.738281 888.0625 73.082031 886.027344 76.984375 C 883.210938 82.390625 879.277344 87.132812 875.3125 91.773438 C 873.335938 94.082031 871.335938 96.382812 869.019531 98.34375 C 868.144531 99.082031 867.191406 99.789062 866.070312 100.03125 C 864.625 100.339844 863.136719 99.832031 861.816406 99.179688 C 856.507812 96.539062 852.035156 92.679688 847.894531 88.660156 C 843.894531 84.773438 840.28125 80.492188 837.707031 75.398438 " fill-opacity="1" fill-rule="nonzero"/></g><g clip-path="url(#cb16b6e385)"><path fill="#3180ef" d="M 903.5 75.398438 C 903.234375 74.871094 902.988281 74.320312 902.765625 73.746094 C 901.550781 70.609375 901.214844 67.164062 901.640625 63.828125 C 901.9375 61.496094 902.617188 59.171875 903.972656 57.253906 C 911.550781 46.5 926.792969 56.695312 928.367188 66.789062 C 928.71875 62.667969 930.46875 57.5625 933.90625 54.964844 C 937.671875 52.109375 944.222656 51.398438 948.453125 53.558594 C 952.386719 55.566406 954.691406 59.976562 954.996094 64.355469 C 955.296875 68.738281 953.855469 73.082031 951.824219 76.984375 C 949.003906 82.390625 945.070312 87.132812 941.101562 91.773438 C 939.128906 94.082031 937.132812 96.382812 934.8125 98.34375 C 933.9375 99.082031 932.984375 99.789062 931.863281 100.03125 C 930.421875 100.339844 928.929688 99.832031 927.613281 99.179688 C 922.300781 96.539062 917.828125 92.679688 913.691406 88.660156 C 909.6875 84.773438 906.074219 80.492188 903.5 75.398438 " fill-opacity="1" fill-rule="nonzero"/></g><g clip-path="url(#fdf1440282)"><path fill="#1072d9" d="M 969.292969 75.398438 C 969.027344 74.871094 968.78125 74.320312 968.558594 73.746094 C 967.34375 70.609375 967.011719 67.164062 967.433594 63.828125 C 967.730469 61.496094 968.410156 59.171875 969.765625 57.253906 C 977.34375 46.5 992.589844 56.695312 994.164062 66.789062 C 994.515625 62.667969 996.261719 57.5625 999.699219 54.964844 C 1003.464844 52.109375 1010.015625 51.398438 1014.25 53.558594 C 1018.179688 55.566406 1020.484375 59.976562 1020.789062 64.355469 C 1021.09375 68.738281 1019.648438 73.082031 1017.613281 76.984375 C 1014.796875 82.390625 1010.867188 87.132812 1006.894531 91.773438 C 1004.925781 94.082031 1002.925781 96.382812 1000.605469 98.34375 C 999.734375 99.082031 998.777344 99.789062 997.65625 100.03125 C 996.214844 100.339844 994.722656 99.832031 993.40625 99.179688 C 988.09375 96.539062 983.621094 92.679688 979.484375 88.660156 C 975.480469 84.773438 971.867188 80.492188 969.292969 75.398438 " fill-opacity="1" fill-rule="nonzero"/></g><g clip-path="url(#9990e1761f)"><path fill="#1773f1" d="M 1035.089844 75.398438 C 1034.820312 74.871094 1034.574219 74.320312 1034.351562 73.746094 C 1033.136719 70.609375 1032.804688 67.164062 1033.226562 63.828125 C 1033.523438 61.496094 1034.207031 59.171875 1035.558594 57.253906 C 1043.136719 46.5 1058.382812 56.695312 1059.957031 66.789062 C 1060.308594 62.667969 1062.058594 57.5625 1065.492188 54.964844 C 1069.261719 52.109375 1075.808594 51.398438 1080.042969 53.558594 C 1083.972656 55.566406 1086.277344 59.976562 1086.582031 64.355469 C 1086.882812 68.738281 1085.441406 73.082031 1083.410156 76.984375 C 1080.589844 82.390625 1076.660156 87.132812 1072.691406 91.773438 C 1070.71875 94.082031 1068.71875 96.382812 1066.398438 98.34375 C 1065.527344 99.082031 1064.570312 99.789062 1063.449219 100.03125 C 1062.007812 100.339844 1060.515625 99.832031 1059.199219 99.179688 C 1053.886719 96.539062 1049.414062 92.679688 1045.277344 88.660156 C 1041.273438 84.773438 1037.664062 80.492188 1035.089844 75.398438 " fill-opacity="1" fill-rule="nonzero"/></g></svg>